<svg xmlns="http://www.w3.org/2000/svg" width="256" viewBox="0 -0.5 47 47" shape-rendering="crispEdges">
<metadata>Made with Pixels to Svg https://codepen.io/shshaw/pen/XbxvNj</metadata>
<path stroke="#000000" d="M14 1h3M19 1h3M23 1h3M28 1h3M32 1h3M37 1h3M13 2h1M16 2h3M20 2h3M25 2h3M29 2h3M34 2h3M38 2h5M13 3h1M16 3h3M20 3h3M25 3h3M29 3h3M34 3h3M38 3h5M11 4h2M14 4h2M19 4h1M23 4h2M28 4h1M32 4h2M37 4h1M41 4h3M11 5h2M40 5h1M44 5h2M11 6h2M40 6h1M44 6h2M10 7h1M40 7h1M44 7h2M10 8h1M38 8h2M44 8h2M10 9h1M38 9h2M44 9h2M8 10h2M16 10h15M38 10h2M44 10h2M8 11h2M37 11h1M44 11h2M8 12h2M37 12h1M44 12h2M7 13h1M14 13h15M37 13h1M44 13h2M7 14h1M35 14h2M44 14h2M7 15h1M35 15h2M44 15h2M5 16h2M35 16h2M44 16h2M5 17h2M34 17h1M44 17h2M5 18h2M34 18h1M44 18h2M4 19h1M34 19h1M44 19h2M4 20h1M32 20h2M44 20h2M4 21h1M32 21h2M44 21h2M2 22h2M32 22h2M44 22h2M2 23h2M31 23h1M44 23h2M2 24h2M31 24h1M44 24h2M1 25h1M31 25h1M44 25h2M1 26h1M29 26h2M44 26h2M1 27h1M29 27h2M44 27h2M1 28h1M29 28h2M44 28h2M2 29h27M44 29h2M2 30h27M44 30h2M13 31h1M44 31h2M13 32h1M44 32h2M13 33h1M44 33h2M13 34h1M44 34h2M13 35h1M44 35h2M13 36h1M44 36h2M13 37h1M44 37h2M13 38h1M44 38h2M13 39h1M44 39h2M13 40h1M44 40h2M14 41h2M44 41h2M14 42h2M44 42h2M16 43h1M43 43h1M17 44h26M17 45h26" />
<path stroke="#00ffff" d="M13 4h1M16 4h1M22 4h1M25 4h1M31 4h1M34 4h1M14 5h2M17 5h2M20 5h2M23 5h2M26 5h2M29 5h2M32 5h2M35 5h2M14 6h2M17 6h2M20 6h2M23 6h2M26 6h2M29 6h2M32 6h2M35 6h2M13 7h1M16 7h1M19 7h1M22 7h1M25 7h1M28 7h1M31 7h1M34 7h1M37 7h1M11 8h2M14 8h2M17 8h2M20 8h2M23 8h2M26 8h2M29 8h2M32 8h2M35 8h2M11 9h2M14 9h2M17 9h2M20 9h2M23 9h2M26 9h2M29 9h2M32 9h2M35 9h2M10 10h1M13 10h1M31 10h1M34 10h1M11 11h2M14 11h2M17 11h2M20 11h2M23 11h2M26 11h2M29 11h2M32 11h2M11 12h2M14 12h2M17 12h2M20 12h2M23 12h2M26 12h2M29 12h2M32 12h2M10 13h1M13 13h1M31 13h1M34 13h1M8 14h2M11 14h2M14 14h2M17 14h2M20 14h2M23 14h2M26 14h2M29 14h2M32 14h2M8 15h2M11 15h2M14 15h2M17 15h2M20 15h2M23 15h2M26 15h2M29 15h2M32 15h2M7 16h1M10 16h1M13 16h1M16 16h1M19 16h1M22 16h1M25 16h1M28 16h1M31 16h1M8 17h2M11 17h2M14 17h2M17 17h2M20 17h2M23 17h2M26 17h2M29 17h2M8 18h2M11 18h2M14 18h2M17 18h2M20 18h2M23 18h2M26 18h2M29 18h2M7 19h1M10 19h1M13 19h1M16 19h1M19 19h1M22 19h1M25 19h1M28 19h1M31 19h1M5 20h2M8 20h2M11 20h2M14 20h2M17 20h2M20 20h2M23 20h2M26 20h2M29 20h2M5 21h2M8 21h2M11 21h2M14 21h2M17 21h2M20 21h2M23 21h2M26 21h2M29 21h2M4 22h1M7 22h1M10 22h1M13 22h1M16 22h1M19 22h1M22 22h1M25 22h1M28 22h1M5 23h2M8 23h2M11 23h2M14 23h2M17 23h2M20 23h2M23 23h2M26 23h2M5 24h2M8 24h2M11 24h2M14 24h2M17 24h2M20 24h2M23 24h2M26 24h2M4 25h1M7 25h1M10 25h1M13 25h1M16 25h1M19 25h1M22 25h1M25 25h1M28 25h1M2 26h2M5 26h2M8 26h2M11 26h2M14 26h2M17 26h2M20 26h2M23 26h2M26 26h2M2 27h2M5 27h2M8 27h2M11 27h2M14 27h2M17 27h2M20 27h2M23 27h2M26 27h2" />
<path stroke="#bfbcbf" d="M17 4h2M20 4h2M26 4h2M29 4h2M35 4h2M38 4h2M13 5h1M16 5h1M19 5h1M22 5h1M25 5h1M28 5h1M31 5h1M34 5h1M37 5h1M41 5h2M13 6h1M16 6h1M19 6h1M22 6h1M25 6h1M28 6h1M31 6h1M34 6h1M37 6h1M41 6h2M11 7h2M14 7h2M17 7h2M20 7h2M23 7h2M26 7h2M29 7h2M32 7h2M35 7h2M41 7h2M13 8h1M16 8h1M19 8h1M22 8h1M25 8h1M28 8h1M31 8h1M34 8h1M40 8h3M13 9h1M16 9h1M19 9h1M22 9h1M25 9h1M28 9h1M31 9h1M34 9h1M40 9h3M11 10h2M14 10h2M32 10h2M35 10h2M40 10h3M10 11h1M13 11h1M16 11h1M19 11h1M22 11h1M25 11h1M28 11h1M31 11h1M34 11h1M38 11h5M10 12h1M13 12h1M16 12h1M19 12h1M22 12h1M25 12h1M28 12h1M31 12h1M34 12h1M38 12h5M8 13h2M11 13h2M29 13h2M32 13h2M38 13h5M10 14h1M13 14h1M16 14h1M19 14h1M22 14h1M25 14h1M28 14h1M31 14h1M41 14h2M10 15h1M13 15h1M16 15h1M19 15h1M22 15h1M25 15h1M28 15h1M31 15h1M41 15h2M8 16h2M11 16h2M14 16h2M17 16h2M20 16h2M23 16h2M26 16h2M29 16h2M32 16h2M37 16h3M41 16h2M7 17h1M10 17h1M13 17h1M16 17h1M19 17h1M22 17h1M25 17h1M28 17h1M31 17h1M35 17h5M41 17h2M7 18h1M10 18h1M13 18h1M16 18h1M19 18h1M22 18h1M25 18h1M28 18h1M31 18h1M35 18h5M41 18h2M5 19h2M8 19h2M11 19h2M14 19h2M17 19h2M20 19h2M23 19h2M26 19h2M29 19h2M41 19h2M7 20h1M10 20h1M13 20h1M16 20h1M19 20h1M22 20h1M25 20h1M28 20h1M34 20h4M41 20h2M7 21h1M10 21h1M13 21h1M16 21h1M19 21h1M22 21h1M25 21h1M28 21h1M34 21h4M41 21h2M5 22h2M8 22h2M11 22h2M14 22h2M17 22h2M20 22h2M23 22h2M26 22h2M29 22h2M34 22h4M41 22h2M4 23h1M7 23h1M10 23h1M13 23h1M16 23h1M19 23h1M22 23h1M25 23h1M28 23h1M41 23h2M4 24h1M7 24h1M10 24h1M13 24h1M16 24h1M19 24h1M22 24h1M25 24h1M28 24h1M41 24h2M2 25h2M5 25h2M8 25h2M11 25h2M14 25h2M17 25h2M20 25h2M23 25h2M26 25h2M32 25h5M41 25h2M4 26h1M7 26h1M10 26h1M13 26h1M16 26h1M19 26h1M22 26h1M25 26h1M31 26h6M41 26h2M4 27h1M7 27h1M10 27h1M13 27h1M16 27h1M19 27h1M22 27h1M25 27h1M31 27h6M41 27h2M41 28h2M29 29h6M41 29h2M29 30h6M41 30h2M14 31h21M41 31h2M41 32h2M41 33h2M14 34h20M41 34h2M14 35h20M41 35h2M14 36h20M41 36h2M41 37h2M14 38h17M41 38h2M14 39h17M41 39h2M40 40h3M16 41h25M16 42h25" />
<path stroke="#007779" d="M40 4h1M38 5h2M38 6h2M38 7h2M37 8h1M37 9h1M37 10h1M35 11h2M35 12h2M35 13h2M34 14h1M34 15h1M34 16h1M32 17h2M32 18h2M32 19h2M31 20h1M31 21h1M31 22h1M29 23h2M29 24h2M29 25h2M28 26h1M28 27h1M2 28h27" />
<path stroke="#797779" d="M43 5h1M43 6h1M43 7h1M43 8h1M43 9h1M43 10h1M43 11h1M43 12h1M43 13h1M37 14h4M43 14h1M37 15h4M43 15h1M43 16h1M43 17h1M43 18h1M35 19h6M43 19h1M43 20h1M43 21h1M43 22h1M32 23h9M43 23h1M32 24h9M43 24h1M43 25h1M43 26h1M43 27h1M31 28h10M43 28h1M43 29h1M43 30h1M43 31h1M14 32h27M43 32h1M14 33h27M43 33h1M43 34h1M43 35h1M43 36h1M14 37h27M43 37h1M43 38h1M43 39h1M43 40h1M41 41h3M41 42h3M17 43h26" />
<path stroke="#ffffff" d="M40 16h1M40 17h1M40 18h1M38 20h3M38 21h3M38 22h3M37 25h4M37 26h4M37 27h4M35 29h6M35 30h6M35 31h6M34 34h7M34 35h7M34 36h7M31 38h10M31 39h10M14 40h26" />
</svg>
